<svg role="presentation" focusable="false" viewBox="0 0 24 24" xmlns="http://www.w3.org/2000/svg"><path d="M13 6C13 5.44772 12.5523 5 12 5C11.4477 5 11 5.44772 11 6V12C11 12.2652 11.1054 12.5196 11.2929 12.7071L13.7929 15.2071C14.1834 15.5976 14.8166 15.5976 15.2071 15.2071C15.5976 14.8166 15.5976 14.1834 15.2071 13.7929L13 11.5858V6Z" fill="currentColor"/><path fill-rule="evenodd" clip-rule="evenodd" d="M22 12C22 17.5228 17.5228 22 12 22C6.47715 22 2 17.5228 2 12C2 6.47715 6.47715 2 12 2C17.5228 2 22 6.47715 22 12ZM12 20C16.4183 20 20 16.4183 20 12C20 7.58172 16.4183 4 12 4C7.58172 4 4 7.58172 4 12C4 16.4183 7.58172 20 12 20Z" fill="currentColor"/></svg>