<svg xmlns="http://www.w3.org/2000/svg" viewBox="0 0 101 101"><path d="M82.2 79.8h-61v-61c0-1.3-1.1-2.4-2.4-2.4s-2.4 1.1-2.4 2.4v63.4c0 1.3 1.1 2.4 2.4 2.4h63.4c1.3 0 2.4-1.1 2.4-2.4 0-1.3-1.1-2.4-2.4-2.4z"/><path d="M44.5 70.5V35.9c0-1.3-1.1-2.4-2.4-2.4s-2.4 1.1-2.4 2.4v34.7c0 1.3 1.1 2.4 2.4 2.4s2.4-1.1 2.4-2.5zM32.9 70.5V35.9c0-1.3-1.1-2.4-2.4-2.4-1.3 0-2.4 1.1-2.4 2.4v34.7c0 1.3 1.1 2.4 2.4 2.4 1.3-.1 2.4-1.1 2.4-2.5zM67.8 70.5V35.9c0-1.3-1.1-2.4-2.4-2.4-1.3 0-2.4 1.1-2.4 2.4v34.7c0 1.3 1.1 2.4 2.4 2.4 1.3-.1 2.4-1.1 2.4-2.5zM79.4 70.5V53.2c0-1.3-1.1-2.4-2.4-2.4s-2.4 1.1-2.4 2.4v17.3c0 1.3 1.1 2.4 2.4 2.4s2.4-1 2.4-2.4zM56.1 70.5V53.2c0-1.3-1.1-2.4-2.4-2.4s-2.4 1.1-2.4 2.4v17.3c0 1.3 1.1 2.4 2.4 2.4s2.4-1 2.4-2.4z"/></svg>