<?xml version="1.0" encoding="UTF-8"?>
<svg width="752pt" height="752pt" version="1.1" viewBox="0 0 752 752" xmlns="http://www.w3.org/2000/svg">
 <g>
  <rect width="752" height="752" fill="#0078bf"/>
  <path d="m531.25 566.17c0.59375 4.293-0.59375 8.582-3.4023 11.84-2.8125 3.2578-6.957 5.1797-11.246 5.1797h-281.19c-4.293 0-8.4375-1.9258-11.246-5.1797-2.8125-3.2578-3.9961-7.5469-3.4023-11.84l12.727-82.73c10.953-70.891 70.891-122.24 142.52-122.24s131.57 51.355 142.52 122.24l12.727 82.73zm-155.25-219.77c48.984 0 88.797-39.809 88.797-88.797 0-48.984-39.809-88.797-88.797-88.797-48.984 0-88.797 39.809-88.797 88.797 0 48.984 39.809 88.797 88.797 88.797z" fill="#fff"/>
 </g>
</svg>
