<?xml version="1.0"?>
<svg width="312" height="64" xmlns="http://www.w3.org/2000/svg" xmlns:svg="http://www.w3.org/2000/svg" aria-label="Trello" class="LogoTrello__Logo-sc-11mphmv-0 dmCGMv">
 <linearGradient id="trello-logo-gradient-defaultMJFtCCgVhXrVl7v9HA7EH" x1="50.048061%" x2="50.048061%" y1="100%" y2="0%">
  <stop offset="0" stop-color="#0052cc"/>
  <stop offset="1" stop-color="#2684ff"/>
 </linearGradient>
 <g class="layer">
  <title>Layer 1</title>
  <g fill="none" fill-rule="evenodd" id="svg_1">
   <path d="m55.49,2.69l-47.59,0c-4.09,0 -7.41,3.01 -7.42,6.71l0,43.03c-0.01,1.78 0.77,3.5 2.16,4.77c1.4,1.26 3.29,1.97 5.26,1.97l47.59,0c1.97,0 3.86,-0.72 5.25,-1.98s2.17,-2.98 2.16,-4.76l0,-43.03c-0.01,-3.7 -3.32,-6.7 -7.41,-6.71zm-28.09,40.68c0,0.6 -0.27,1.17 -0.74,1.58c-0.47,0.43 -1.1,0.66 -1.76,0.65l-10.4,0c-1.36,-0.01 -2.46,-1.01 -2.46,-2.24l0,-28.02c0,-1.23 1.1,-2.23 2.46,-2.24l10.4,0c1.36,0.01 2.46,1.01 2.47,2.24l0.03,28.02zm24,-12.87c0,0.6 -0.26,1.17 -0.73,1.59c-0.47,0.42 -1.11,0.65 -1.77,0.64l-10.4,0c-1.36,-0.01 -2.46,-1.01 -2.47,-2.24l0,-15.16c0.01,-1.23 1.11,-2.23 2.47,-2.24l10.4,0c1.36,0.01 2.46,1.01 2.46,2.24l0.04,15.16z" fill="url(#trello-logo-gradient-defaultMJFtCCgVhXrVl7v9HA7EH)" id="svg_2"/>
   <g fill="#293856" fill-rule="nonzero" id="svg_3">
    <path d="m107.86,25.26l18.14,0.38l0.25,8.78l-12.94,0.05c-6.54,0.04 -5.16,2.33 -5.6,7.47l0.08,15.66l-12.23,0.04l0.02,-50.88l30.25,0.15l0.37,9.86l-18.38,0.17l0.05,8.31z" id="svg_4"/>
    <path d="m147.23,57.94l-12.74,0l0,-40.74l12.74,0l0,7.8c2.42,-5.5 6.29,-8.76 13.18,-8.37l0,12.07c-9,-0.63 -13.18,1.36 -13.18,7.89l0,21.35z" id="svg_5"/>
    <path d="m230.01,59.26c-8.35,0 -13.6,-3.62 -13.6,-12.19l0,-44.61l12.83,0l0,43.02c0,2.47 1.8,3.35 4,3.35c0.63,0.01 1.27,-0.02 1.9,-0.08l0,10.04c-1.68,0.37 -3.4,0.53 -5.13,0.47z" id="svg_6"/>
    <path d="m256.77,59.26c-8.35,0 -13.61,-3.62 -13.61,-12.19l0,-44.61l12.83,0l0,43.02c0,2.47 1.81,3.35 4.05,3.35c0.63,0.01 1.26,-0.02 1.89,-0.08l0,10.04c-1.69,0.37 -3.42,0.53 -5.16,0.47z" id="svg_7"/>
    <path d="m268.08,38.55c0,-12.59 8,-21.2 21.78,-21.2s21.61,8.58 21.61,21.2s-7.92,21.35 -21.61,21.35s-21.78,-8.85 -21.78,-21.35zm12.49,0c0,6.13 2.84,10.99 9.29,10.99s9.13,-4.86 9.13,-10.99s-2.75,-10.87 -9.13,-10.87s-9.29,4.73 -9.29,10.87z" id="svg_8"/>
    <path d="m177.61,42.24c3.57,0.35 7.15,0.54 10.74,0.57c9.76,0 18,-2.37 18,-10.93c0,-8.3 -8.47,-14.54 -18.66,-14.54c-13.72,0 -22.51,9.01 -22.51,21.59c0,13.07 7.58,20.82 24.71,20.82c5.08,0.04 10.13,-0.78 14.88,-2.41l0,-9.76c-4.4,1.28 -9.35,2.54 -14.43,2.54c-6.82,0 -11.57,-2.03 -12.73,-7.9zm9.82,-16.01c3.61,0 6.51,2.22 6.51,5.25c0,3.9 -4.55,5.12 -9.79,5.12c-2.23,-0.01 -4.46,-0.17 -6.66,-0.48c0.17,-1.9 0.77,-3.75 1.77,-5.43c1.63,-2.71 4.76,-4.41 8.17,-4.45l0,-0.02z" id="svg_9"/>
   </g>
  </g>
 </g>
</svg>